<svg id="Layer_1" xmlns="http://www.w3.org/2000/svg" viewBox="0 0 127.8 19.5">
  <style>
    .st64{fill-rule:evenodd;clip-rule:evenodd;fill:#231f20;stroke:#231f20;stroke-width:.216;stroke-miterlimit:22.9256}
  </style>
  <path d="M94 9.4c27.2-14.8 50.7-12.2 17.6 8.3 7.7-10.1-.7-12.8-17.6-8.3z" style="fill-rule:evenodd;clip-rule:evenodd;fill:#231f20"/>
  <path d="M94 9.4c27-14.7 50.5-12.1 17.6 8.3C119.3 7.6 111 4.9 94 9.4z" style="fill:#292424;fill-rule:evenodd;clip-rule:evenodd"/>
  <path d="M94.1 9.4c26.8-14.6 50.2-12 17.6 8.3 7.6-10.2-.7-12.8-17.6-8.3z" style="fill:#332d2d;fill-rule:evenodd;clip-rule:evenodd"/>
  <path d="M94.1 9.4c26.6-14.5 49.9-11.9 17.5 8.3 7.7-10.2-.6-12.8-17.5-8.3z" style="fill:#383231;fill-rule:evenodd;clip-rule:evenodd"/>
  <path d="M94.2 9.3c26.5-14.4 49.7-11.7 17.5 8.3 7.6-10.1-.6-12.7-17.5-8.3z" style="fill-rule:evenodd;clip-rule:evenodd;fill:#3e3634"/>
  <path d="M94.2 9.3c26.3-14.3 49.4-11.6 17.5 8.3 7.6-10.1-.6-12.7-17.5-8.3z" style="fill:#453b38;fill-rule:evenodd;clip-rule:evenodd"/>
  <path d="M94.3 9.3c26.1-14.2 49.1-11.5 17.5 8.3 7.5-10.1-.7-12.7-17.5-8.3z" style="fill:#4c413d;fill-rule:evenodd;clip-rule:evenodd"/>
  <path d="M94.3 9.3c25.9-14.1 48.9-11.3 17.4 8.3 7.6-10.1-.5-12.7-17.4-8.3z" style="fill:#51443f;fill-rule:evenodd;clip-rule:evenodd"/>
  <path d="M94.4 9.3c25.7-14 48.6-11.2 17.4 8.3 7.5-10.1-.6-12.8-17.4-8.3z" style="fill:#554540;fill-rule:evenodd;clip-rule:evenodd"/>
  <path d="M94.4 9.2c25.6-13.9 48.4-11.1 17.4 8.2 7.5-9.9-.6-12.6-17.4-8.2z" style="fill:#5c4a44;fill-rule:evenodd;clip-rule:evenodd"/>
  <path d="M94.5 9.2c25.4-13.8 48.1-11 17.4 8.2 7.4-10-.7-12.6-17.4-8.2z" style="fill:#604b44;fill-rule:evenodd;clip-rule:evenodd"/>
  <path d="M94.5 9.2c25.2-13.7 47.8-10.8 17.4 8.2 7.4-10-.6-12.6-17.4-8.2z" style="fill-rule:evenodd;clip-rule:evenodd;fill:#664e46"/>
  <path d="M94.6 9.2c25-13.6 47.6-10.7 17.3 8.2 7.4-10-.6-12.6-17.3-8.2z" style="fill:#6a5047;fill-rule:evenodd;clip-rule:evenodd"/>
  <path d="M94.6 9.1c24.8-13.5 47.3-10.6 17.3 8.2 7.4-9.9-.6-12.5-17.3-8.2z" style="fill:#6e5046;fill-rule:evenodd;clip-rule:evenodd"/>
  <path d="M94.7 9.1c24.7-13.4 47-10.4 17.3 8.2 7.3-9.9-.6-12.5-17.3-8.2z" style="fill:#735246;fill-rule:evenodd;clip-rule:evenodd"/>
  <path d="M94.7 9.1c24.5-13.3 46.8-10.3 17.3 8.2 7.3-9.9-.6-12.5-17.3-8.2z" style="fill:#775346;fill-rule:evenodd;clip-rule:evenodd"/>
  <path d="M94.8 9.1c24.3-13.2 46.5-10.2 17.3 8.2 7.2-9.9-.7-12.5-17.3-8.2z" style="fill:#7c5548;fill-rule:evenodd;clip-rule:evenodd"/>
  <path d="M94.9 9.1C119-4 141.1-1 112.1 17.2c7.2-9.8-.6-12.4-17.2-8.1z" style="fill-rule:evenodd;clip-rule:evenodd;fill:#805446"/>
  <path d="M94.9 9c24-13 46-9.9 17.2 8.2 7.2-9.8-.6-12.4-17.2-8.2z" style="fill:#855647;fill-rule:evenodd;clip-rule:evenodd"/>
  <path d="M95 9c23.8-12.9 45.7-9.8 17.2 8.2 7.1-9.9-.7-12.4-17.2-8.2z" style="fill:#895545;fill-rule:evenodd;clip-rule:evenodd"/>
  <path d="M95 9c23.6-12.8 45.4-9.7 17.2 8.1 7.1-9.8-.7-12.3-17.2-8.1z" style="fill:#8e5745;fill-rule:evenodd;clip-rule:evenodd"/>
  <path d="M95.1 9c23.4-12.7 45.2-9.5 17.2 8.1 7-9.8-.7-12.3-17.2-8.1z" style="fill:#915745;fill-rule:evenodd;clip-rule:evenodd"/>
  <path d="M95.1 9c23.2-12.6 44.9-9.4 17.1 8.1 7.1-9.8-.6-12.3-17.1-8.1z" style="fill:#955643;fill-rule:evenodd;clip-rule:evenodd"/>
  <path d="M95.2 8.9c23.1-12.5 44.6-9.3 17.1 8.1 7-9.7-.7-12.3-17.1-8.1z" style="fill-rule:evenodd;clip-rule:evenodd;fill:#9b5743"/>
  <path d="M95.2 8.9c22.9-12.4 44.4-9.2 17.1 8.1 7-9.7-.6-12.3-17.1-8.1z" style="fill:#9e5541;fill-rule:evenodd;clip-rule:evenodd"/>
  <path d="M95.3 8.9c22.7-12.3 44.1-9 17.1 8.1 6.9-9.7-.7-12.3-17.1-8.1z" style="fill:#a45641;fill-rule:evenodd;clip-rule:evenodd"/>
  <path d="M95.3 8.9c22.5-12.2 43.8-8.9 17 8.1 7-9.7-.6-12.3-17-8.1z" style="fill:#a7543f;fill-rule:evenodd;clip-rule:evenodd"/>
  <path d="M95.4 8.8c22.3-12.1 43.6-8.8 17 8.1 6.9-9.7-.6-12.2-17-8.1z" style="fill:#ab543e;fill-rule:evenodd;clip-rule:evenodd"/>
  <path d="M95.4 8.8c22.2-12 43.3-8.6 17 8.1 6.9-9.7-.6-12.2-17-8.1z" style="fill:#b1523c;fill-rule:evenodd;clip-rule:evenodd"/>
  <path d="M95.5 8.8c22-11.9 43-8.5 17 8.1 6.9-9.7-.7-12.2-17-8.1z" style="fill-rule:evenodd;clip-rule:evenodd;fill:#b6523b"/>
  <path d="M95.5 8.8c21.8-11.8 42.8-8.4 17 8.1 6.9-9.7-.7-12.2-17-8.1z" style="fill:#ba513a;fill-rule:evenodd;clip-rule:evenodd"/>
  <path d="M95.6 8.8c21.6-11.7 42.5-8.3 16.9 8 6.9-9.6-.6-12.1-16.9-8z" style="fill:#be4d36;fill-rule:evenodd;clip-rule:evenodd"/>
  <path d="M95.7 8.7c21.4-11.6 42.2-8.1 16.9 8 6.8-9.5-.7-12-16.9-8z" style="fill:#c34c35;fill-rule:evenodd;clip-rule:evenodd"/>
  <path d="M95.7 8.7c21.3-11.5 42-8 16.9 8 6.8-9.5-.7-12-16.9-8z" style="fill:#c74832;fill-rule:evenodd;clip-rule:evenodd"/>
  <path d="M95.8 8.7c21.1-11.4 41.7-7.9 16.9 8 6.7-9.5-.7-12-16.9-8z" style="fill:#cc4631;fill-rule:evenodd;clip-rule:evenodd"/>
  <path d="M95.8 8.7c20.9-11.3 41.4-7.7 16.9 8 6.7-9.6-.7-12-16.9-8z" style="fill-rule:evenodd;clip-rule:evenodd;fill:#d0432f"/>
  <path d="M95.9 8.7c20.7-11.2 41.2-7.6 16.8 8 6.7-9.6-.7-12-16.8-8z" style="fill:#d33e2c;fill-rule:evenodd;clip-rule:evenodd"/>
  <path d="M95.9 8.6c20.5-11.1 40.9-7.5 16.8 8 6.7-9.5-.7-11.9-16.8-8z" style="fill:#d9382a;fill-rule:evenodd;clip-rule:evenodd"/>
  <path d="M96 8.6c20.4-11 40.6-7.4 16.8 8 6.6-9.5-.7-12-16.8-8z" style="fill:#de3428;fill-rule:evenodd;clip-rule:evenodd"/>
  <path d="M96 8.6c20.2-10.9 40.4-7.2 16.8 8 6.6-9.5-.7-12-16.8-8z" style="fill:#e22e27;fill-rule:evenodd;clip-rule:evenodd"/>
  <path d="M96.1 8.6c20-10.8 40.1-7.1 16.7 8 6.6-9.5-.7-12-16.7-8z" style="fill:#e52424;fill-rule:evenodd;clip-rule:evenodd"/>
  <path d="M96.1 8.6c19.8-10.7 39.8-7 16.7 8 6.6-9.5-.6-12-16.7-8z" style="fill-rule:evenodd;clip-rule:evenodd;fill:#ed1c24"/>
  <path d="M121.1.9c5-.5 6.8 1 5.5 4.1 0-2.6-2-3.9-5.5-4.1z" style="fill:#808285;fill-rule:evenodd;clip-rule:evenodd"/>
  <path d="M121.2.9c4.9-.4 6.7 1 5.4 4.1 0-2.6-2-3.9-5.4-4.1z" style="fill:#86888a;fill-rule:evenodd;clip-rule:evenodd"/>
  <path d="M121.2.9c4.8-.4 6.6 1 5.3 4 .1-2.5-1.9-3.7-5.3-4z" style="fill:#8a8c8e;fill-rule:evenodd;clip-rule:evenodd"/>
  <path d="M121.3.9c4.7-.4 6.5 1.1 5.3 4 0-2.5-2-3.7-5.3-4z" style="fill:#8f9194;fill-rule:evenodd;clip-rule:evenodd"/>
  <path d="M121.4.9c4.6-.4 6.4 1.1 5.2 3.9 0-2.3-1.9-3.6-5.2-3.9z" style="fill:#95979a;fill-rule:evenodd;clip-rule:evenodd"/>
  <path d="M121.5.9c4.5-.4 6.3 1.1 5.1 3.9 0-2.3-1.9-3.6-5.1-3.9z" style="fill-rule:evenodd;clip-rule:evenodd;fill:#9b9da0"/>
  <path d="M121.6.9c4.4-.4 6.2 1.1 5 3.8 0-2.2-1.9-3.5-5-3.8z" style="fill:#a1a3a6;fill-rule:evenodd;clip-rule:evenodd"/>
  <path d="M121.7.9c4.3-.3 6.1 1.1 5 3.8-.1-2.2-2-3.5-5-3.8z" style="fill:#a7a9ac;fill-rule:evenodd;clip-rule:evenodd"/>
  <path d="M121.7.9c4.2-.3 6 1.1 4.9 3.7 0-2.1-1.9-3.4-4.9-3.7z" style="fill:#adafb2;fill-rule:evenodd;clip-rule:evenodd"/>
  <path d="M121.8.9c4.1-.3 5.8 1.1 4.8 3.7 0-2.1-1.8-3.4-4.8-3.7z" style="fill:#b1b3b6;fill-rule:evenodd;clip-rule:evenodd"/>
  <path d="M121.9.9c4-.3 5.7 1.1 4.7 3.7 0-2.1-1.8-3.4-4.7-3.7z" style="fill:#b8babc;fill-rule:evenodd;clip-rule:evenodd"/>
  <path d="M122 .9c3.9-.3 5.6 1.2 4.6 3.6 0-2-1.8-3.3-4.6-3.6z" style="fill-rule:evenodd;clip-rule:evenodd;fill:#bec0c2"/>
  <path d="M122.1.9c3.8-.3 5.5 1.2 4.6 3.6-.1-2-1.9-3.3-4.6-3.6z" style="fill:#c4c6c8;fill-rule:evenodd;clip-rule:evenodd"/>
  <path d="M122.1.9c3.7-.2 5.4 1.2 4.5 3.5 0-1.9-1.8-3.2-4.5-3.5z" style="fill:#cbccce;fill-rule:evenodd;clip-rule:evenodd"/>
  <path d="M122.2.9c3.6-.2 5.3 1.2 4.4 3.5 0-1.9-1.7-3.2-4.4-3.5z" style="fill:#d1d3d4;fill-rule:evenodd;clip-rule:evenodd"/>
  <path d="M122.3.9c3.5-.2 5.2 1.2 4.3 3.4 0-1.8-1.7-3.1-4.3-3.4z" style="fill:#d8d9da;fill-rule:evenodd;clip-rule:evenodd"/>
  <path d="M122.4.9c3.4-.2 5.1 1.2 4.2 3.4 0-1.8-1.7-3.1-4.2-3.4z" style="fill:#dcddde;fill-rule:evenodd;clip-rule:evenodd"/>
  <path d="M122.5.9c3.3-.2 5 1.2 4.2 3.3-.1-1.7-1.8-3-4.2-3.3z" style="fill-rule:evenodd;clip-rule:evenodd;fill:#e2e3e4"/>
  <path d="M122.6 1c3.2-.2 4.8 1.2 4.1 3.3-.1-1.8-1.8-3.1-4.1-3.3z" style="fill:#e9e9ea;fill-rule:evenodd;clip-rule:evenodd"/>
  <path d="M122.6 1c3.1-.1 4.7 1.3 4 3.2 0-1.7-1.6-3-4-3.2z" style="fill:#efeff0;fill-rule:evenodd;clip-rule:evenodd"/>
  <path d="M122.7 1c3-.1 4.6 1.3 3.9 3.2 0-1.7-1.6-3-3.9-3.2z" style="fill:#f6f6f6;fill-rule:evenodd;clip-rule:evenodd"/>
  <path d="M122.8 1c2.9-.1 4.5 1.3 3.9 3.1-.1-1.6-1.7-2.9-3.9-3.1z" style="fill:#fff;fill-rule:evenodd;clip-rule:evenodd"/>
  <path class="st64" d="M8.1 9.5h8.7v3.1l3-3.1h7v9.7h-6.1v-4.1l-3.9 4.1h-5.7v-4.1l-3.9 4.1h-7l7.9-9.7z"/>
  <path class="st64" d="M39.8 18.6v-2.5c-8.4 1.8-9.9-2.9 0-1.6v-2.8c-16.6-4.1-16.1 11.3 0 6.9zM92 11.3h5.7v.7c3.8-1.4 6.6-1.3 8.5.4.6.6.6 1.2.6 2.1v4.8h-5.7v-4.4c-.7-.9-2.6-.9-3.5 0v4.4H92v-8zm-51.3 7.9V9.5h6.5v6h4.2c-.3-2.9 2.8-6 9.3-3.5v-.6h5.7v7.9h-5.7v-.6c-4.1 1.5-6.9.6-8.3-.9v1.5l-11.7-.1zm18.5-5.3c1.1 0 1.9.7 1.9 1.6 0 .9-.9 1.6-1.9 1.6-1.1 0-1.9-.7-1.9-1.6-.1-.9.8-1.6 1.9-1.6zm23.7.3h3.5c-.1-1.6-3.5-1.7-3.5 0zm7.8 2.5h-2c-1.6 1-4.6.8-5.9-.6H91l.2-.9c0-2.3-3.3-4.2-7.3-4.2-3 0-5.6 1.1-6.7 2.6V11a7 7 0 0 0-4.4 1.3v-.9h-5.7v7.9h5.7v-2.8c.5-.9 1.9-1.1 3.8-1 .2 2 2.8 3.7 6.2 3.9h1c4 0 6.3-1.6 6.9-2.7z"/>
</svg>
