<svg xmlns="http://www.w3.org/2000/svg" viewBox="0 0 192.8 192.8">
  <path d="M22 77.1a19.2 19.2 0 1 0 0 38.5 19.2 19.2 0 0 0 0-38.5zm0 37.5c-4.3 0-8.4-1.5-11.5-4.2-3-2.6-5.3-6.7-5.9-11.2A17.7 17.7 0 1 0 36 85.4c2.3 1.8 4.3 6.9 4.3 11 0 10-8.2 18.2-18.2 18.2zM20.5 95 22 79h.1l.2 16.8 2.6-1.6-2.6-15.1a17.3 17.3 0 0 1 15 25.7l-12.1-10-1.1.6 13 9.5v.2l-14.8-8.5v3l14.6 5.7a17.3 17.3 0 0 1-29.7 0l14.6-5.7v-3l-14.7 8.5-.1-.2 13-9.5-1.1-.7-12 10a17.2 17.2 0 0 1-2.1-8.3c0-9.5 7.5-17.1 16.9-17.3l-2.4 15.3 1.1.6zm1.7-16.8C12.2 78.2 4 86.3 4 96.4c0 4 1.5 8 3.7 11.2.8 1.5 1.6 2.4 2.7 3.5a18.9 18.9 0 0 1 11.8-33.6c10.4 0 19 8.8 18.7 18.9a19.1 19.1 0 0 0-18.7-18.2zm84.5 19.5c0-3.4-1.5-6.2-4.8-6.2-3 0-4.7 2.8-4.7 6.2s1.4 6 4.7 6c3.3 0 4.2-1.5 4.7-4.1h-1.1c0 1-.7 3-3 3.1-2.8 0-3-3.4-3-5l.1-1c0-1 0-4.1 2.4-4.1 2 0 2.3 2.5 2.3 4.1h-4.7v1h7.1zM50.4 87.3v.8h.7c.5 0 1.2 0 1.2.7l-.3 12.9c0 .5-.2 1-1.1 1H50v.7h4.8v-.7H54c-.6 0-1-.2-1-1l.2-12.4 5.1 13.3h.5L64 89.2l.2 12.5c0 .4-.4 1-1 1h-1v.7h6v-.7h-.7c-.5 0-1.2-.3-1.2-1L66.2 89c0-.4.5-.9 1-.9h.8v-.8h-4.3L59.3 99l-4.5-11.7h-4.4zm33.4 16.1v-.6h-.4c-.5 0-1.2-.1-1.2-1v-6.2c0-2 1-2.7 2-2.7.4 0 .6.2.5 1-.1.7.5 1.1 1 1s1.2 0 1.1-1.4-.8-2-2.2-2a3 3 0 0 0-2 1c-.4.5-.7.3-.8-.1 0-.4-.2-.9-.7-.7a11.4 11.4 0 0 1-2.8.5v.5c2-.1 1.8.9 1.8 1.3v7.8c0 .9-.7 1-1.2 1h-.6v.6h5.5zm10.6-11.1c-.7-.5-1.6-.8-2.6-.8-3 0-4.8 2.7-4.8 6.1 0 3.4 1.4 6.1 4.8 6.1 3 0 3.6-1.6 4.1-4.2h-1c-.2 1-.5 3.1-2.7 3.2-2.7 0-2.9-3.4-2.8-5.1 0-1 .1-5.2 2.4-5.2 2 0 3.1 1.4 3.1 3h.7v-4H95l-.6.9zm68.7 10.4c-2.7 0-2.9-3.4-2.8-5h7.1c0-3.4-1.5-6.2-4.8-6.2-3 0-4.7 2.8-4.7 6.2s1.4 6 4.7 6c3.3 0 4.2-1.5 4.7-4.1h-1c-.2 1-.8 3-3.2 3.1zm-.4-10.1c2 0 2.3 2.5 2.3 4.1h-4.7c0-1 0-4.1 2.4-4.1zm-38.6 10.1c-2.7 0-3-3.4-2.9-5h7.2c0-3.4-1.5-6.2-4.8-6.2-3 0-4.8 2.8-4.8 6.2s1.5 6 4.8 6c3.2 0 4.2-1.5 4.7-4.1h-1.1c-.1 1-.7 3-3.1 3.1zm-.4-10.1c2 0 2.3 2.5 2.3 4.1h-4.7c0-1-.1-4.1 2.4-4.1zm-50 10.1c-2.7 0-3-3.4-2.9-5H78c0-3.4-1.5-6.2-4.8-6.2-3 0-4.8 2.8-4.8 6.2s1.5 6 4.8 6c3.2 0 4.2-1.5 4.7-4.1h-1.1c-.1 1-.7 3-3.1 3.1zm-.4-10.1c2 0 2.3 2.5 2.3 4.1h-4.7c0-1-.1-4.1 2.4-4.1zm43.6 8.4V87.7c0-.5-.2-1-.7-.8a11.4 11.4 0 0 1-2.8.5v.5c1.4-.1 1.5.3 1.5.8v4a3.5 3.5 0 0 0-2.6-1c-1.6 0-4.6 1.2-4.6 5.7 0 6 3.5 6.3 4.5 6.3s2.4-.8 2.7-1.3c0 0 .2-.2.2 0 0 .4.4 1 .9 1a11.4 11.4 0 0 1 2.8-.6v-.5c-2 .1-1.9-.9-1.9-1.3zm-2-1.5c0 2.7-1.4 3.5-2.6 3.5-2.5 0-2.3-4-2.3-5.6s0-5 2.4-4.7c2.3.3 2.5 2.8 2.5 4.2v2.6zm30-2.9v-1h-6.3v1h6.2zm-15 2.8v4h.5l.5-1c.5.4 1.5 1.1 2.8 1.1 1.3 0 3-.7 3.8-2 .7-1.3.4-3.5-1.3-4.2l-3.6-1.7a1.5 1.5 0 0 1-.8-1.7c.1-.7.8-1.5 2.3-1.6 1.5 0 2.3 1.3 2.5 2.7h.5v-3.8h-.5l-.5 1c-1-.7-1.4-.8-2.3-.8s-2.5.5-3.3 1.8a2.9 2.9 0 0 0 1.4 4.3l3.6 1.6c.5.3.9 1.4.5 2.1-.4.7-1 1.4-2.2 1.4s-3-.8-3.4-3.2h-.5zm23.9-4.7c1-.2 2.2-2.3 2.2-3.7 0-1.3-.5-3.7-3.8-3.7H145v.7c.7 0 2 .1 2 1.3V101c0 .7-.1 1.8-2 1.8v.6h5.8c1.8 0 5.8-.1 5.9-4.8 0-1.5-.8-3.4-3-3.9zm-4.7-6.6h2.3c1.8 0 2.5 1.3 2.5 3 0 2-.6 3.5-2.5 3.5h-2.3v-6.5zm2.4 14.6H149v-7.3h2.7c1.5 0 2.9 1.1 2.9 3.5 0 2.3-1.4 3.8-3.2 3.8zm24.7-7.9v7c0 .9-.8 1-1.2 1h-.3v.6h5.2v-.6h-.5c-.4 0-1.2-.1-1.2-1v-7c0-3.1-2.9-3.2-3.9-3.2s-2.2.6-2.4 1c-.3.4-.6.2-.7-.2 0-.4-.2-.9-.7-.7a11.4 11.4 0 0 1-2.8.5v.5c2-.1 1.8.9 1.8 1.3v7.8c0 .9-.7 1-1.1 1h-.7v.6h5.5v-.6h-.4c-.5 0-1.2-.1-1.2-1v-6.2c0-1 .4-2.7 2.3-2.8 2-.2 2.3 1.1 2.3 2zm4.8.2.8-3.2h8.1l-7 11h3.8c.8 0 1.5-.4 2.4-2.5h.4l-.8 3.1h-8.2l6.9-11h-3.1c-.8 0-1.6 0-2.8 2.6h-.5z" class="bz-2"/>
</svg>