<svg viewBox="0 -0.1 380.2 220.7" xmlns="http://www.w3.org/2000/svg">
  <path d="M272 36h-16v32c0 10 11 19 25 19s25-9 25-19V36h-16v29c0 4-4 8-9 8s-9-4-9-8zM17 19v65H0V5h30c13 0 24 11 24 24 0 11-8 20-18 22l23 33H39L22 59V40h4c7 0 12-5 12-11s-5-10-11-10zm153 65V2h-15v39c-5-4-10-7-16-7-13 0-24 12-24 26s11 26 24 26c6 0 12-3 16-7v5zm-26-12c-7 0-12-5-12-12s5-13 12-13 11 6 11 13-5 12-12 12m94-31c4-4 7-9 7-15 0-5-2-10-6-14s-10-7-19-7h-27v79h35c13 0 24-10 24-22 0-9-4-16-14-21m-14 30h-15V20h11c5 0 8 3 8 8s-3 8-8 8h-6v15h11c5 0 9 4 9 10 0 5-3 9-10 10" fill="#e21b4d"/>
  <path d="M73 54a10 10 0 0 1 19 0zm35 9v-3c0-17-11-27-25-27S56 45 56 60s12 26 27 26c11 0 19-5 24-13l-13-5c-2 3-6 6-10 6-6 0-11-5-11-11zM314 2h15v82h-15zm26 0h16v82h-16z" fill="#e21b4d"/>
  <path d="M142 139a39 39 0 1 1 77 0 39 39 0 0 1-77 0" fill="#ffd300"/>
  <path clip-rule="evenodd" d="m149 116 2 1 10 8 3 4c3 3 5 5 5 8l3 13 2 2c1 1 1 4 4 5l1 1c1 0 0 2-3 2 1 1 1 2-1 3-5 0-7-3-8-4l-3 2h-5l-6 2c-3 0-3-2-3-4v-1l-1 3c-1 1-1 2-3 2l-3 1-7 3-5-1-2-3h-1l-1-1-3-3v-2l3-1h5l2-1-1-2h-9c-3-1-5 1-7 1l-1 1-3 5-4 1c-2 2-4 1-7 1h-2l-2 2-4 2-2-1-4 4c-2 1-3 0-5-1l-1 1-3-1-1-2 1-2v-2l3-2 1-2c2-1 3-3 5-2l2 2 2-4 1-2h3l2-1v-1l-1-6h-6c-2-1-5-3-6-6-1-2-1-6 1-8l5-5h-2c-3-1-5-3-6-6l1-4 1-1 3 2h1c3 1 7 1 9 6 1 3-1 5-4 7l-4 5c-1 1 0 3 1 4h5l7-5c3-2 6-2 9-2l4-2c1-2 3-3 6-4h3l2-2 12-6 6-2 4 1zm4 34-5 1 2 4c0-2 2-3 3-5m56 1 3 4 2-4h-5m2 7h-1c1 2 0 4-3 5l-6-2c-2 0-5 1-6-2-3 3-6 4-8 4-1 0-3-1-1-3-4 2-4-1-4-2l3-2c7-7 4-19 11-26l11-9 5-4 4-2c2 0 4 0 6 2l3 2 2 1 6 3 4 2 6 2c2 1 3 3 6 3 5 1 9 3 12 6 3 1 5 3 8 2l2-2-2-4c-3-3-7-5-6-9 0-3 4-5 6-5l4-2c1 0 1-2 2-1l1 2c1 3 0 6-2 7l-4 2 5 6 1 4c0 3-2 6-4 7l-5 1h-2v5l-1 3h2c1 0 3 0 3 2l2 4c1-1 2-2 3-1l4 2 1 1 2 3v2c1 1 2 2 1 3l-4 1h-1l-6-1-2-2h-4c-2-2-5-4-8-4h-5l-4-3c-2-1-2-3-2-5h-12l-7 1-1 1h1l1 1h5l1 1v1l-2 4h-2c0 2-2 4-4 4h-2l-6-2-2-1-3-1v-1l-2-4" fill="#ffd300" fill-rule="evenodd"/>
  <g fill="#e21b4d">
    <path clip-rule="evenodd" d="m148 129 1 5h-1l-1-4-1-3h1l1 2m16 14 2 4-1 1-1-3-2-1-2 1 1-3s0-2 2-1l1 2m-2 12v2h-2l-1-1 3-2v1m-73-37c3 1 5 1 7 3v4c-1 3-4 4-6 6-1 1-2 3-1 6 0 2 2 3 4 3 3 0 5-1 8-3 2-2 4-4 7-4l6-1 4-4 6-2c2 0 3-1 5-3s5-2 8-3l5-3h6l3 2 8 6 1 1 6 9 2 3c0 5 1 9 3 13l1 1 4 6h2v1h-1c-2 0-4-1-5-3l-4-4 1 1 1 4 3 3 2 1c-3 0-5 0-7-2l-2-1-4 2h-5l-4 1-2-1v-3l1-1-2-1 3-3 2-3-1-1-4 1h-4c2-2 2-5 2-7s-1 0-1 0l-2 6-3 1-1 1 1 2 2 5v3c0 1 0 1 0 0 1 0 2-1 2-3v-1l-3-6h1l2 1 2 4v3l-2 3-3 1-8 3-3-1-2-2-2-1-2-3v-1h5c2 2 2 4 4 4h4l1-2c0-2-1-4-3-5l-4-3-1-2c0-1 0-1 0 0l-1 2 1 1h-4l-6-1c-2 0-5 2-7 0v-7h-1l-1 6-4 5-6 2c-4 0-8 1-10 4v1c3-3 6-4 10-4 3 0 7-1 9-4l2-2 1 1-1 3-2 2-4 2h-9l-2 2-4 2h-2l-3 3h-4l1-4 2-1 1-2 4-3 1-3 1-1h2l3-2 1-1-1-3-1-5h-6c-2 0-5-2-6-4-1-3-1-6 1-8l5-5 1-1-1-1h-4l-4-5 1-3 4 3m-6 45-1 4-2-1c-1 0 0 0 0 0v-3l2-1 1 1m5-4-3 2h-2l1-2 2-1h1l1 1m50-1v2h-3l-1-2-1-1 4-1 1 2m63-16 1 3c1 0 0 0 0 0l-2-1-1 1-3 3v1h-1l2-4 3-4 1 1m0 13 1 2h-2l-1-2v-1l2 1m15-30v1l-4 4-1 2v-3l4-5 1 1m6-7 3 3 6 2c2 0 3 1 4 3l4 1c2 0 4 1 5 3l8 2c4 1 7 5 11 6 2 1 5 2 7 1l2-4c-1-4-6-6-8-10v-3l4-3 5-2 1-1 1 1c0 2 0 5-3 6l-2 1-3 1 2 2c3 2 5 5 5 9 1 3-1 5-4 6l-6 1h-1v9c0 2 2 1 4 2l1 1 1 2 2 4c1 1 2 3 4 2l1 4h-5c-1-1-1-3-3-3l-3 1-2-2c-3-2-6-3-9-2-2 1-3-1-4-1-2-1-3-3-3-5l-1-2 1-1c1 3 3 6 6 7h8l6 3c-2-3-5-5-9-4-3 0-6-1-8-3l-2-5-1-6h-1v6c0 2-2 2-3 2h-5c-3 0-7 2-10 1v-3l-1 2-4 3-3 3v1c0 2 2 2 4 3l2-1 2-3h5l-1 1-2 3h-1l-2 3h-3l-6-1-2-2h-2l-1-3-1-2v-1l3-5 1-1 2 1-3 5v3l1 1v-3l1-2 2-3v-2l-3-2c-2-3-2-5-2-8l-1-1v6l1 4v1h-4l-5-3c0 2 3 3 3 5l3 4-1 1h-1v2l-2 2-6-2h-4l-2-1h-1c-2 2-4 4-7 4l-1-1 4-4 2-4h-1l-3 5c-2 1-3 2-5 1 6-4 7-11 9-17 1-4 2-8 5-12l16-13 3-1 6 2m57 44 1 3v2h-2l-1-4 1-1h1m-5-4 3 2-1 1-1 1-1-1-2-2c1-1 1-2 2-1m-48-1-1 3h-2l-1-1v-2h4" fill-rule="evenodd"/>
    <path d="M20 220h14v-3H23v-10h11v-3H23v-7h11v-3H20zm28 0h3v-20l19 21v-27h-3v19l-20-20zm36 0h14v-3H87v-10h10v-3H87v-7h11v-3H84zm35-12c3 0 6-3 6-7 0-2-1-5-3-6l-7-1h-4v26h3v-11h1l8 11h4zm-5-11h1c3 0 7 0 7 4s-4 5-7 5h-1v-9zm36 10v2h7c-1 5-5 8-9 8-5 0-10-5-10-10 0-6 5-11 10-11 4 0 7 2 9 4l2-2a13 13 0 0 0-24 9c0 7 6 13 13 13s12-5 12-13v-1h-10zm28 1v12h3v-12l8-14h-3l-7 11-6-11h-4zm34 12h5c8 0 14-5 14-13 0-9-6-13-14-13h-6zm3-23h1c6 0 12 2 12 10 0 7-6 10-12 10h-1zm36 11c4 0 7-3 7-7 0-2-2-5-4-6l-7-1h-4v26h4v-11h1l8 11h3zm-4-11h1c3 0 7 0 7 4s-4 5-7 5h-1v-9zm23-3h3v26h-3zm16 26h3v-20l19 21v-27h-3v19l-19-20zm38-15v-11h-3v26h3v-11l2-1 9 12h5l-12-15 11-11h-4zM373 1l4 2 2 4-2 5-4 2-5-2-2-5 2-4 5-2m7 6-2-5a7 7 0 0 0-13 5l2 6c1 2 4 2 6 2l5-2 2-6m-5-1-1 1h-3V4h1l2 1 1 1m-5-3v8h1V8h1l2 1 1 1v1h1v-1l-1-2h-1l1-1 1-1-1-2-3-1z"/>
  </g>
</svg>
